<?xml version="1.0" encoding="iso-8859-1"?>
<!-- Generator: Adobe Illustrator 18.1.1, SVG Export Plug-In . SVG Version: 6.00 Build 0)  -->
<svg version="1.1" id="Capa_1" xmlns="http://www.w3.org/2000/svg" xmlns:xlink="http://www.w3.org/1999/xlink" x="0px" y="0px"
	 viewBox="0 0 496.136 496.136" style="enable-background:new 0 0 496.136 496.136;" xml:space="preserve">
<g>
	<g id="Icons_41_">
		<g>
			<path d="M329.662,283.855c-19.946,25.324-49.099,41.426-81.594,41.426c-32.513,0-61.647-16.102-81.606-41.444
				c-17.009,8.172-31.154,21.885-39.57,39.587l-15.132,31.88c31.814,40.376,81.027,66.408,136.309,66.408
				c55.265,0,104.477-26.032,136.291-66.377l-15.148-31.911C360.812,305.721,346.648,292.026,329.662,283.855z"/>
			<path d="M248.068,300.474c46.332,0,84.033-43.462,84.033-96.886c0-53.425-37.701-96.902-84.033-96.902
				s-84.043,43.477-84.043,96.902C164.025,257.012,201.736,300.474,248.068,300.474z M248.068,139.762
				c28.104,0,50.953,28.617,50.953,63.826c0,35.175-22.85,63.809-50.953,63.809c-28.1,0-50.971-28.634-50.971-63.809
				C197.097,168.379,219.968,139.762,248.068,139.762z"/>
			<path d="M248.068,0.005C111.279,0.005,0,111.288,0,248.066c0,136.793,111.279,248.065,248.068,248.065
				c136.795,0,248.068-111.272,248.068-248.065C496.136,111.288,384.863,0.005,248.068,0.005z M248.068,446.518
				c-109.436,0-198.454-89.019-198.454-198.452c0-109.417,89.019-198.454,198.454-198.454s198.454,89.037,198.454,198.454
				C446.522,357.499,357.504,446.518,248.068,446.518z"/>
		</g>
	</g>
</g>
<g>
</g>
<g>
</g>
<g>
</g>
<g>
</g>
<g>
</g>
<g>
</g>
<g>
</g>
<g>
</g>
<g>
</g>
<g>
</g>
<g>
</g>
<g>
</g>
<g>
</g>
<g>
</g>
<g>
</g>
</svg>
